<svg id="Layer_1" data-name="Layer 1" xmlns="http://www.w3.org/2000/svg" viewBox="0 0 60 60"><defs><style>.cls-1{fill:none;}.cls-2{fill:#5d87a1;}.cls-3{fill:#f8981d;}</style></defs><title>skill-icons</title><path class="cls-1" d="M-10.4,2H70.4V58H-10.4Z"/><path class="cls-2" d="M14.33,47.23H12.15c-.08-3.69-.29-7.17-.64-10.42h0L8.16,47.23H6.49L3.18,36.81h0c-.24,3.12-.4,6.6-.46,10.42h-2c.12-4.65.45-9,1-13.07H4.38l3.16,9.6h0l3.17-9.6h2.6q.86,7.14,1,13.07m9.49-9.64q-1.34,7.24-3.52,10.53c-1.14,1.69-2.38,2.53-3.74,2.53a3.82,3.82,0,0,1-1.34-.32V49.16a6.12,6.12,0,0,0,.91.06,2.17,2.17,0,0,0,1.53-.52,1.91,1.91,0,0,0,.7-1.43A9.44,9.44,0,0,0,17.82,45l-2.4-7.46h2.15l1.72,5.58a7.31,7.31,0,0,1,.48,2.65,36.19,36.19,0,0,0,2-8.23h2.07Z"/><path class="cls-3" d="M52.94,47.23H46.72V34.16h2.09V45.62h4.13Zm-7.84.31-2.41-1.18a4.18,4.18,0,0,0,.6-.59,8,8,0,0,0,1.53-5.32c0-4.32-1.69-6.49-5.09-6.49a4.82,4.82,0,0,0-3.89,1.65,8,8,0,0,0-1.53,5.31c0,2.29.45,4,1.36,5a4.62,4.62,0,0,0,3.73,1.45,6.17,6.17,0,0,0,1.72-.23L44.24,49Zm-7.79-2.93a8,8,0,0,1-.79-4.1q0-4.93,3-4.94a2.52,2.52,0,0,1,2.3,1.18,8,8,0,0,1,.8,4.07c0,3.32-1,5-3,5a2.52,2.52,0,0,1-2.31-1.18m-3.91-1a3.46,3.46,0,0,1-1.22,2.72,4.79,4.79,0,0,1-3.27,1.07,6.52,6.52,0,0,1-3.71-1.22l.56-1.12a6.41,6.41,0,0,0,2.8.77,2.91,2.91,0,0,0,1.85-.52,1.77,1.77,0,0,0,.71-1.45c0-.78-.54-1.44-1.53-2s-2.75-1.55-2.75-1.55a3.14,3.14,0,0,1-1.49-2.78A3.26,3.26,0,0,1,26.46,35a4.22,4.22,0,0,1,2.88-1,6,6,0,0,1,3.31,1l-.51,1.13a6.22,6.22,0,0,0-2.51-.55,2.27,2.27,0,0,0-1.55.49,1.61,1.61,0,0,0-.58,1.24c0,.77.55,1.44,1.57,2s2.8,1.57,2.8,1.57a3.11,3.11,0,0,1,1.53,2.77"/><path class="cls-2" d="M55.56,29.78a7.45,7.45,0,0,0-3.06.44c-.24.1-.62.1-.65.4.13.13.14.33.25.5a3.65,3.65,0,0,0,.82,1c.34.25.67.5,1,.72.61.38,1.31.6,1.9,1,.35.22.7.51,1,.74.17.13.28.34.5.41v0c-.11-.15-.14-.35-.25-.51l-.47-.46A7.54,7.54,0,0,0,55,32.34c-.5-.35-1.61-.82-1.81-1.4l0,0a5.93,5.93,0,0,0,1.09-.25c.53-.14,1-.11,1.57-.25l.76-.22V30c-.28-.28-.49-.66-.79-.93a21.69,21.69,0,0,0-2.6-1.94c-.49-.32-1.12-.52-1.64-.79-.19-.09-.51-.14-.62-.3a6.74,6.74,0,0,1-.65-1.22C49.85,24,49.4,23,49,22.11a17.28,17.28,0,0,0-.81-1.8,15.92,15.92,0,0,0-6.11-5.91,7.85,7.85,0,0,0-2-.65l-1.18-.06a5.81,5.81,0,0,1-.73-.55c-.9-.57-3.22-1.8-3.88-.18-.43,1,.63,2,1,2.56a7.81,7.81,0,0,1,.81,1.19c.11.27.14.55.25.83a18.61,18.61,0,0,0,.82,2.12,7.42,7.42,0,0,0,.58,1c.13.17.35.25.4.54a4.18,4.18,0,0,0-.36,1.18,7,7,0,0,0,.45,5.31c.26.39.86,1.26,1.66.93s.56-1.19.76-2c0-.19,0-.31.11-.44v0c.22.44.44.87.65,1.31a9,9,0,0,0,2.05,2.12c.38.28.68.77,1.15.95v-.05h0a1.59,1.59,0,0,0-.36-.32,7.17,7.17,0,0,1-.82-.94,21,21,0,0,1-1.77-2.88c-.25-.49-.47-1-.68-1.51-.09-.19-.09-.48-.25-.57a5.57,5.57,0,0,0-.76,1.07,8.92,8.92,0,0,0-.44,2.39l-.07,0c-.5-.13-.67-.65-.86-1.09a6.8,6.8,0,0,1-.15-4.22c.11-.33.59-1.37.4-1.69s-.41-.47-.59-.71a6.65,6.65,0,0,1-.56-1c-.38-.88-.57-1.86-1-2.75a8.36,8.36,0,0,0-.79-1.21A8.48,8.48,0,0,1,35,13.9c-.08-.18-.19-.46-.06-.65s.09-.17.22-.21.79.05,1,.15a7.21,7.21,0,0,1,1.57.79c.22.15.45.45.74.53h.33c.5.11,1.07,0,1.55.18a10.12,10.12,0,0,1,2.27,1.08,14.13,14.13,0,0,1,4.93,5.41c.18.36.27.69.44,1.07.33.77.74,1.56,1.07,2.32a10.69,10.69,0,0,0,1.12,2.12c.24.33,1.19.5,1.61.68a8.85,8.85,0,0,1,1.09.44c.54.33,1.08.71,1.58,1.07.25.19,1,.59,1.09.9M39.45,16.06a2.34,2.34,0,0,0-.64.08v0h0a6.57,6.57,0,0,0,.5.65c.13.25.24.5.37.76l0,0a.88.88,0,0,0,.33-.79c-.1-.11-.11-.22-.19-.33s-.3-.23-.43-.36"/><path class="cls-3" d="M57.06,47.23h.33V45.62H56.9l-.4,1.1-.43-1.1h-.48v1.61h.31V46h0l.45,1.22h.24L57.06,46v1.22Zm-2.63,0h.34V45.9h.46v-.28H54v.28h.47v1.33Z"/></svg>