<svg id="Layer_1" data-name="Layer 1" xmlns="http://www.w3.org/2000/svg" xmlns:xlink="http://www.w3.org/1999/xlink" viewBox="0 0 60 60"><defs><style>.cls-1{fill:#fff;}.cls-2{fill:none;}.cls-3{clip-path:url(#clip-path);}.cls-4{mask:url(#mask);}.cls-5{fill:#5e438f;}.cls-6{fill:url(#linear-gradient);}.cls-7{fill:url(#linear-gradient-2);}.cls-8{fill:url(#linear-gradient-3);}</style><clipPath id="clip-path"><rect id="SVGID" class="cls-2" width="60" height="60"/></clipPath><mask id="mask" x="0" y="0" width="60" height="60" maskUnits="userSpaceOnUse"><g id="mask0"><path class="cls-1" d="M11,50.75,1,43.25a2.53,2.53,0,0,1-.74-.88A2.56,2.56,0,0,1,0,41.25V18.75a2.56,2.56,0,0,1,.26-1.12A2.53,2.53,0,0,1,1,16.75l10-7.5a2.24,2.24,0,0,0-.59.92,2.32,2.32,0,0,0-.1,1.08v37.5a2.38,2.38,0,0,0,.1,1.09A2.28,2.28,0,0,0,11,50.75Z"/><path class="cls-1" d="M58.89,10.41A2.54,2.54,0,0,0,57.5,10a2.44,2.44,0,0,0-.93.18,2.51,2.51,0,0,0-.8.52l-.17.18L35.65,30l-11,10.59L14.4,50.37l-.18.18a2.36,2.36,0,0,1-.79.52,2.44,2.44,0,0,1-.93.18,2.53,2.53,0,0,1-1.5-.5L1,43.25a2.5,2.5,0,0,0,1.77.49,2.47,2.47,0,0,0,1.63-.87L15.5,30l9.11-10.58L40.58.87A2.5,2.5,0,0,1,43.85.41Z"/><path class="cls-1" d="M58.89,49.59l-15,10a2.53,2.53,0,0,1-3.29-.45l-16-18.55L15.5,30,4.4,17.11a2.53,2.53,0,0,0-1.63-.85A2.55,2.55,0,0,0,1,16.75l10-7.5a2.53,2.53,0,0,1,1.5-.5,2.44,2.44,0,0,1,.93.18,2.36,2.36,0,0,1,.79.52l.18.18,10.21,9.78L35.65,30l20,19.13.17.17a2.51,2.51,0,0,0,.8.52,2.44,2.44,0,0,0,.93.18A2.54,2.54,0,0,0,58.89,49.59Z"/><path class="cls-1" d="M60,12.5v35a2.5,2.5,0,0,1-1.11,2.09l-15,10A2.5,2.5,0,0,0,45,57.5V2.5a2.6,2.6,0,0,0-.31-1.19,2.58,2.58,0,0,0-.84-.9l15,10A2.57,2.57,0,0,1,60,12.5Z"/></g></mask><linearGradient id="linear-gradient" x1="52.06" y1="-111.29" x2="7.51" y2="-156.13" gradientTransform="matrix(1, 0, 0, -1, 0, -108)" gradientUnits="userSpaceOnUse"><stop offset="0" stop-color="#7252aa"/><stop offset="1" stop-color="#7252aa"/></linearGradient><linearGradient id="linear-gradient-2" x1="8.1" y1="-116.72" x2="49.98" y2="-163.6" gradientTransform="matrix(1, 0, 0, -1, 0, -108)" gradientUnits="userSpaceOnUse"><stop offset="0" stop-color="#ae7fe2"/><stop offset="1" stop-color="#9a70d4"/></linearGradient><linearGradient id="linear-gradient-3" x1="51.92" y1="-107.21" x2="51.92" y2="-167.54" gradientTransform="matrix(1, 0, 0, -1, 0, -108)" gradientUnits="userSpaceOnUse"><stop offset="0" stop-color="#d59dff"/><stop offset="1" stop-color="#c18ef1"/></linearGradient></defs><title>skill-icons</title><g class="cls-3"><g class="cls-3"><g class="cls-4"><path class="cls-5" d="M11,50.75,1,43.25a2.53,2.53,0,0,1-.74-.88A2.56,2.56,0,0,1,0,41.25V18.75a2.56,2.56,0,0,1,.26-1.12A2.53,2.53,0,0,1,1,16.75l10-7.5a2.28,2.28,0,0,0-.59.91,2.38,2.38,0,0,0-.1,1.09v37.5a2.38,2.38,0,0,0,.1,1.09A2.28,2.28,0,0,0,11,50.75Z"/><path class="cls-6" d="M58.89,10.41A2.54,2.54,0,0,0,57.5,10a2.44,2.44,0,0,0-.93.18,2.51,2.51,0,0,0-.8.52l-.17.18L45,21.06,35.65,30l-11,10.59L14.4,50.37l-.18.18a2.36,2.36,0,0,1-.79.52,2.44,2.44,0,0,1-.93.18,2.53,2.53,0,0,1-1.5-.5L1,43.25a2.5,2.5,0,0,0,1.77.49,2.47,2.47,0,0,0,1.63-.87L10,36.38,15.5,30l9.11-10.58L40.57.87a2.65,2.65,0,0,1,.85-.64,2.52,2.52,0,0,1,2.43.18Z"/><path class="cls-7" d="M58.89,49.59l-15,10a2.53,2.53,0,0,1-3.29-.45l-16-18.55L15.5,30,10,23.61l-5.6-6.5a2.53,2.53,0,0,0-1.63-.85A2.55,2.55,0,0,0,1,16.75l10-7.5a2.53,2.53,0,0,1,1.5-.5,2.44,2.44,0,0,1,.93.18,2.36,2.36,0,0,1,.79.52l.18.18,10.21,9.78L35.65,30,45,39,55.6,49.13l.17.17a2.51,2.51,0,0,0,.8.52,2.44,2.44,0,0,0,.93.18A2.54,2.54,0,0,0,58.89,49.59Z"/><path class="cls-8" d="M60,12.5v35a2.5,2.5,0,0,1-1.11,2.09l-15,10A2.57,2.57,0,0,0,45,57.5V2.5a2.6,2.6,0,0,0-.31-1.19,2.58,2.58,0,0,0-.84-.9l15,10A2.57,2.57,0,0,1,60,12.5Z"/></g></g></g></svg>