<svg id="Layer_1" data-name="Layer 1" xmlns="http://www.w3.org/2000/svg" viewBox="0 0 60 60"><defs><style>.cls-1{fill:#1f0040;}.cls-2{fill:#f7eefe;}</style></defs><title>skill-icons</title><rect class="cls-1" x="0.11" y="1" width="59.78" height="58" rx="13.29"/><rect class="cls-1" x="2.88" y="3.77" width="54.24" height="52.47" rx="10.52"/><path class="cls-2" d="M16.73,34.87,15,40.07a.37.37,0,0,1-.38.28H10.58c-.25,0-.32-.14-.28-.35l7-20.29a6.55,6.55,0,0,0,.36-2.14.23.23,0,0,1,.21-.25h5.62c.18,0,.25,0,.28.21l8,22.5c.07.18,0,.32-.17.32H27a.37.37,0,0,1-.39-.25l-1.79-5.24Zm6.82-4.4c-.7-2.32-2.11-6.57-2.78-9.06h0c-.56,2.35-1.83,6.22-2.74,9.06Z"/><path class="cls-2" d="M37.82,32.91c.18,2,1.58,3.65,5,3.65a10.76,10.76,0,0,0,4.32-.81c.11-.07.21,0,.21.18v3.34c0,.24-.07.35-.24.42a11.81,11.81,0,0,1-5.38,1c-6.61,0-8.93-4.54-8.93-8.89,0-4.86,3-9.29,8.51-9.29,5.3,0,7.41,4.11,7.41,7.59a11.68,11.68,0,0,1-.17,2.35.31.31,0,0,1-.28.28,32.92,32.92,0,0,1-3.62.14Zm4.57-3.41a12.21,12.21,0,0,0,1.75-.07v-.26a2.86,2.86,0,0,0-3-2.78,3.33,3.33,0,0,0-3.38,3.09Z"/></svg>