<svg id="Layer_1" data-name="Layer 1" xmlns="http://www.w3.org/2000/svg" viewBox="0 0 60 60"><defs><style>.cls-1{fill:#0868ac;}.cls-2{fill:#131b28;}</style></defs><title>skill-icons</title><path class="cls-1" d="M12.42,9.53C8.85,14.66,9.3,21.33,12,26.77l.2.39.13.24.08.15.14.25.26.45.15.24.3.47.13.2.44.63v0l.07.1.4.53.15.19.37.45.14.17.51.58h0l0,0c.17.18.35.36.52.55l.17.16.42.41.17.16c.19.18.37.35.57.52h0l.1.09.51.43.22.17.43.34.23.18.49.34.17.13.05,0,.47.32.21.13c.24.15.48.31.73.45l.21.12.55.31.31.16.39.2.09.05.16.07.63.29.13.06.74.31.17.07.69.25.09,0,.77.26.19.05a7.15,7.15,0,0,0,.79.23c17.25,3.14,22.25-10.37,22.25-10.37C45,33.86,37.49,35.31,30.41,33.7c-.26-.06-.52-.14-.78-.22l-.2-.06-.76-.25-.11,0-.67-.24-.19-.08-.72-.3-.14-.06-.61-.29-.18-.08-.47-.24-.32-.17-.56-.32-.19-.1-.74-.45-.2-.14L23,30.32l-.16-.12-.5-.36-.22-.17-.45-.35-.2-.16L21,28.69l-.07-.05-.58-.53L20.14,28l-.42-.41-.16-.17L19,26.83l0,0-.53-.6L18.35,26,18,25.57l-.14-.17-.44-.58C13.48,19.46,12.06,12.07,15.2,6m8.29-.78c-2.58,3.71-2.44,8.67-.43,12.6a16.47,16.47,0,0,0,1.14,1.9,9,9,0,0,0,1.33,1.66l.58.6.15.15c.19.19.39.37.59.55l0,0h0l.69.57.16.12c.23.18.47.36.72.53h0l.33.22.16.1a5.84,5.84,0,0,0,.53.33l.08.05.47.26.17.09.33.17.05,0,.69.32.15.07.57.23.24.09.52.18.24.07a5,5,0,0,0,.75.22c13.31,2.21,16.39-8,16.39-8-2.77,4-8.14,5.9-13.87,4.41-.25-.06-.5-.14-.75-.22l-.23-.07-.52-.18-.24-.09L34,21.93l-.15-.06c-.24-.11-.47-.21-.7-.33l-.35-.17-.2-.11L32.12,21,32,21l-.54-.32-.16-.11L31,20.29c-.25-.17-.49-.34-.72-.52l-.16-.13a16,16,0,0,1-5.44-7.75,12,12,0,0,1,.94-9.65M32.8,2a7.78,7.78,0,0,0-.62,7.49,10.56,10.56,0,0,0,6.06,5.65l.33.12.14,0a3.79,3.79,0,0,0,.48.14c7.35,1.42,9.34-3.77,9.87-4.54-1.74,2.52-4.68,3.12-8.28,2.25-.29-.07-.6-.18-.87-.27s-.7-.27-1-.43a10.45,10.45,0,0,1-1.81-1.11C33.84,8.89,31.83,4.22,33.94.42"/><path class="cls-2" d="M31.14,46.34H29.09a.28.28,0,0,0-.25.2l-.72,3.36-.73,3.37a.28.28,0,0,1-.25.2H25.69c-1.44,0-1.27-1-1-2.35v0l0-.17v0l.06-.34.07-.38.08-.38.33-1.62.33-1.61a.17.17,0,0,0-.16-.21H23.36a.29.29,0,0,0-.25.21l-.45,2.14-.45,2.15h0l0,.2c-.53,2.38-.39,4.65,2.44,4.72h4.53a.27.27,0,0,0,.25-.2l1-4.51,1-4.5A.16.16,0,0,0,31.14,46.34Zm-22,0H6.94a.27.27,0,0,0-.25.2l-.21,1-.22.94a.16.16,0,0,0,.16.2H8.69a.26.26,0,0,0,.25-.2l.21-.94.21-1A.16.16,0,0,0,9.19,46.31Zm-.65,2.93H6.27a.27.27,0,0,0-.25.2L5.7,50.86l-.32,1.41-.09.4L5,54.11l-.31,1.44a3,3,0,0,1-.11.4s-.42,1.26-1.13,1.25H2.73a.25.25,0,0,0-.25.19l-.24,1-.23,1a.15.15,0,0,0,.15.2l1.86,0c1.78,0,2.72-1,3.32-3.82L8,52.5l.66-3.06A.16.16,0,0,0,8.54,49.24Zm41.77-.76-.09-.39-.1-.4,0-.2c-.19-.71-.73-1.13-1.9-1.13H42.77a.27.27,0,0,0-.25.2l-.09.4-.09.46,0,.14-.85,4-.81,3.8a.65.65,0,0,0,0,.3c0,.06.23.1.34.1h1.71a1.25,1.25,0,0,0,.32,0,.76.76,0,0,0,.18-.36l.3-1.51.31-1.5h0l0-.2.37-1.73.32-1.52a.27.27,0,0,1,.25-.21h5.38A.16.16,0,0,0,50.31,48.48ZM57.23,45H55.1a.47.47,0,0,0-.33.17L51,50.72c-.07.09-.14.08-.16,0l-.29-1.23a.26.26,0,0,0-.25-.2H47.82a.15.15,0,0,0-.15.2l1.1,3.84a1.08,1.08,0,0,1,0,.4l-.48,1.86a.15.15,0,0,0,.15.2h2.42a.28.28,0,0,0,.26-.2l.48-1.86a1.27,1.27,0,0,1,.18-.37L58,45.13C58,45,58,45,57.88,45ZM37.79,49.78h0a.25.25,0,0,1-.24.21h-3.1c-.11,0-.17-.07-.15-.16h0l0-.05a1.94,1.94,0,0,1,2-1.31C37.63,48.45,37.88,49.08,37.79,49.78Zm-.91-3.58c-4,0-4.93,2.42-5.46,4.86s-.48,4.81,3.64,4.81h1.16l2.62,0a.28.28,0,0,0,.25-.2l.16-.82,0-.16.2-1a.17.17,0,0,0-.17-.2H35.61c-1.47,0-1.91-.4-1.75-1.55h5.93A.24.24,0,0,0,40,51.8v0h0C40.9,48.43,40.65,46.2,36.88,46.2ZM18.06,49.77,18,50h0l-.45,1.58-.44,1.59a.29.29,0,0,1-.27.19H14.47c-1.79,0-2.23-1.4-1.79-3.47s1.29-3.44,3.06-3.57C18.16,46.11,18.64,47.81,18.06,49.77Zm1.62,3.44a26.24,26.24,0,0,0,1.37-4.27c.34-2.1-.7-5.14-4.76-5.14s-5.77,2.9-6.44,6.06.2,6,4.21,5.94h6.11a.29.29,0,0,0,.26-.2l.52-2a.15.15,0,0,0-.16-.2h-1c-.1,0-.15-.07-.14-.15ZM39.62,51.4a.13.13,0,0,1-.13.13.13.13,0,0,1-.14-.13.14.14,0,0,1,.14-.14A.13.13,0,0,1,39.62,51.4Z"/></svg>