<svg id="Layer_1" data-name="Layer 1" xmlns="http://www.w3.org/2000/svg" viewBox="0 0 60 60"><defs><style>.cls-1{fill:#ffa000;}.cls-2{fill:#f57f17;}.cls-3{fill:#ffca28;}</style></defs><title>skill-icons</title><path class="cls-1" d="M36.78,21.66l-6,5.59L25.21,16l2.88-6.46c.75-1.31,1.92-1.3,2.65,0Z"/><path class="cls-2" d="M25.21,16l5.57,11.24L8.34,48.12Z"/><path class="cls-3" d="M43.35,13.13c1.07-1,2.18-.68,2.47.78l5.84,33.93L32.3,59.46a9.06,9.06,0,0,1-2.48.54,8.22,8.22,0,0,1-2.26-.56L8.34,48.12Z"/><path class="cls-1" d="M25.21,16,8.35,48.12,15.86,1.2C16.13-.27,17-.41,17.71.88Z"/></svg>