<svg id="Layer_1" data-name="Layer 1" xmlns="http://www.w3.org/2000/svg" xmlns:xlink="http://www.w3.org/1999/xlink" viewBox="0 0 60 60"><defs><style>.cls-1{fill:url(#linear-gradient);}.cls-2{fill:url(#linear-gradient-2);}</style><linearGradient id="linear-gradient" x1="6.04" y1="51.02" x2="58.47" y2="9.4" gradientTransform="matrix(1, 0, 0, -1, 0, 62)" gradientUnits="userSpaceOnUse"><stop offset="0" stop-color="#9013fe"/><stop offset="1" stop-color="#6610f2"/></linearGradient><linearGradient id="linear-gradient-2" x1="22.51" y1="40.97" x2="34.08" y2="21.39" gradientUnits="userSpaceOnUse"><stop offset="0" stop-color="#fff"/><stop offset="1" stop-color="#f1e5fc"/></linearGradient></defs><title>skill-icons</title><path class="cls-1" d="M6.62,12.34a6,6,0,0,1,5.84-6.25H47.54a6,6,0,0,1,5.85,6.25,33.55,33.55,0,0,0,1,10.47c1,3.31,2.74,5.4,5.56,5.67v3c-2.82.27-4.54,2.36-5.56,5.67a33.55,33.55,0,0,0-1,10.47,6,6,0,0,1-5.85,6.25H12.46a6,6,0,0,1-5.84-6.25,33.55,33.55,0,0,0-1-10.47c-1-3.31-2.75-5.4-5.57-5.67v-3c2.82-.27,4.55-2.36,5.57-5.67A33.55,33.55,0,0,0,6.62,12.34Z"/><path class="cls-2" d="M34.26,29.3v-.14a5.69,5.69,0,0,0,4.64-5.54c0-3.84-3-6.34-7.65-6.34H20.85V42.71H31.3c5.54,0,8.88-2.71,8.88-7.19C40.18,32.14,37.8,29.69,34.26,29.3Zm-9.37-8.79h5.38c2.93,0,4.59,1.3,4.59,3.66,0,2.52-1.93,3.93-5.44,3.93H24.89Zm5.58,19H24.89V31.11h5.35c3.82,0,5.81,1.41,5.81,4.16S34.12,39.48,30.47,39.48Z"/></svg>