<svg id="Layer_1" data-name="Layer 1" xmlns="http://www.w3.org/2000/svg" xmlns:xlink="http://www.w3.org/1999/xlink" viewBox="0 0 60 60"><defs><style>.cls-1{fill:url(#linear-gradient);}</style><linearGradient id="linear-gradient" x1="8.42" y1="16.9" x2="58.9" y2="49.33" gradientUnits="userSpaceOnUse"><stop offset="0" stop-color="#72f5c9"/><stop offset="0.18" stop-color="#6ae9bf"/><stop offset="0.52" stop-color="#54caa3"/><stop offset="0.96" stop-color="#329776"/><stop offset="1" stop-color="#2e9271"/></linearGradient></defs><title>skill-icons</title><path class="cls-1" d="M59.83,35.69,49.12,8.33a2.63,2.63,0,0,0-1.65-1.56,2.66,2.66,0,0,0-2.23.31l-8.12,5.17h-.07a2.75,2.75,0,0,0-.91.61L5.7,32.27l-.61-1.56A2.64,2.64,0,1,0,.18,32.63L2,37.21l3.56,9.11,1.8,4.61A2.64,2.64,0,0,0,12.25,49l-.62-1.57,4.63-.82a11.26,11.26,0,0,0,21.53-3.79l20.05-3.54.49-.19a2.66,2.66,0,0,0,1.33-1.17A2.63,2.63,0,0,0,59.83,35.69Zm-31,11.88a6,6,0,0,1-7-1.94L32.3,43.8A6,6,0,0,1,28.84,47.57ZM34.68,38h-.06l-.06,0L17.7,41h0l-.05,0-7.93,1.4-2-5.12L36.73,18.67,43.67,36.4ZM49,35.46l-7.7-19.69,4.09-2.62,8.4,21.47Z"/></svg>