<svg id="Layer_1" data-name="Layer 1" xmlns="http://www.w3.org/2000/svg" xmlns:xlink="http://www.w3.org/1999/xlink" viewBox="0 0 60 60"><defs><style>.cls-1{fill:url(#linear-gradient);}</style><linearGradient id="linear-gradient" x1="10.6" y1="14.92" x2="59.69" y2="49.42" gradientUnits="userSpaceOnUse"><stop offset="0" stop-color="#72f5c9"/><stop offset="0.18" stop-color="#6ae9bf"/><stop offset="0.52" stop-color="#54caa3"/><stop offset="0.96" stop-color="#329776"/><stop offset="1" stop-color="#2e9271"/></linearGradient></defs><title>skill-icons</title><path class="cls-1" d="M57.69,10H49.45a2.32,2.32,0,0,0-2.31,2.31V49.37a2.32,2.32,0,0,0,2.31,2.31h8.24A2.32,2.32,0,0,0,60,49.37V12.28A2.32,2.32,0,0,0,57.69,10Zm-4,17.48a3.36,3.36,0,1,1,3.36-3.36A3.36,3.36,0,0,1,53.71,27.45ZM37.91,8.32H5A5,5,0,0,0,0,13.27V37.83a5,5,0,0,0,5,4.94H18v3.59c0,.11-.08.21-.14.21H8.63a1.82,1.82,0,0,0-1.87,1.77v1.52a1.87,1.87,0,0,0,1.87,1.82H34.44a1.82,1.82,0,0,0,1.82-1.82V48.34a1.78,1.78,0,0,0-1.82-1.77h-9.2c-.08,0-.18-.12-.18-.21V42.77H37.91a5,5,0,0,0,5-4.94V13.27A5,5,0,0,0,37.91,8.32Zm0,4.95V35.19H5V13.27Z"/></svg>