<svg id="Layer_1" data-name="Layer 1" xmlns="http://www.w3.org/2000/svg" viewBox="0 0 60 60"><defs><style>.cls-1{fill:#001d23;}.cls-2{fill:#01c8fe;}</style></defs><title>skill-icons</title><rect class="cls-1" y="0.89" width="60" height="58.22" rx="13.34"/><rect class="cls-1" x="2.78" y="3.67" width="54.44" height="52.66" rx="10.56"/><path class="cls-2" d="M15,17.6c0-.21,0-.28.21-.28,1.45,0,4.23-.11,6.92-.11,7.12,0,9.59,4,9.59,7.8,0,5.72-4.41,8.15-9.84,8.15h-2v7c0,.17-.07.27-.28.27H15.23c-.17,0-.24-.1-.24-.27Zm4.87,11.22c.6,0,1,0,2,0,2.78,0,5-.85,5-3.74,0-2.22-1.52-3.63-4.59-3.63-1.13,0-2.08,0-2.4.07Z"/><path class="cls-2" d="M40.78,26.42c-1.66,0-2.19.6-2.19,1.2s.46,1.06,2.5,1.83c4.27,1.55,5.61,3.21,5.61,5.72,0,3.35-2.61,5.57-7.27,5.57a11.34,11.34,0,0,1-5.11-1,.4.4,0,0,1-.25-.38V35.55c0-.21.14-.31.28-.21a9.94,9.94,0,0,0,5.18,1.41c1.66,0,2.4-.45,2.4-1.2s-.6-1.16-2.68-1.94c-4-1.48-5.29-3.18-5.29-5.72,0-2.75,2.22-5.39,6.88-5.39a11.53,11.53,0,0,1,4.58.7.47.47,0,0,1,.25.46v3.53c0,.21-.14.35-.35.25A10.72,10.72,0,0,0,40.78,26.42Z"/></svg>