<svg id="Layer_1" data-name="Layer 1" xmlns="http://www.w3.org/2000/svg" viewBox="0 0 60 60"><defs><style>.cls-1{fill:#95bf46;}.cls-2{fill:#5e8e3e;}.cls-3{fill:#fff;}</style></defs><title>skill-icons</title><path class="cls-1" d="M49.83,11.68a.57.57,0,0,0-.52-.48l-4.83-.36S41.27,7.66,40.92,7.3a1.45,1.45,0,0,0-1.3-.16l-1.8.55c-1.07-3.08-3-5.91-6.27-5.91h-.29A4,4,0,0,0,28.14,0C20.4,0,16.7,9.67,15.54,14.59l-5.41,1.68c-1.68.53-1.73.58-2,2.16C8,19.63,3.62,53.59,3.62,53.59L37.84,60l18.54-4s-6.51-44-6.55-44.31Zm-13.9-3.4L33,9.17V8.55a14.37,14.37,0,0,0-.69-4.68c1.71.22,2.85,2.16,3.58,4.41Zm-5.7-4A14.51,14.51,0,0,1,31,9.46V9.8l-6,1.85c1.15-4.44,3.31-6.59,5.2-7.4Zm-2.3-2.17a1.75,1.75,0,0,1,1,.33c-2.48,1.17-5.14,4.11-6.26,10l-4.73,1.46c1.32-4.48,4.44-11.77,10-11.77Z"/><path class="cls-2" d="M49.31,11.2l-4.83-.36S41.27,7.66,40.92,7.3a.88.88,0,0,0-.49-.22L37.84,60l18.54-4s-6.51-44-6.55-44.31a.57.57,0,0,0-.52-.48"/><path class="cls-3" d="M31.55,21.44l-2.29,6.8a10.5,10.5,0,0,0-4.46-1.07C21.2,27.17,21,29.43,21,30c0,3.11,8.1,4.3,8.1,11.57,0,5.73-3.63,9.41-8.53,9.41a11.87,11.87,0,0,1-8.88-3.66l1.58-5.19s3.08,2.65,5.69,2.65a2.29,2.29,0,0,0,2.39-2.32c0-4.05-6.64-4.23-6.64-10.89,0-5.6,4-11,12.14-11a10,10,0,0,1,4.68.9"/></svg>