<svg id="Layer_1" data-name="Layer 1" xmlns="http://www.w3.org/2000/svg" viewBox="0 0 60 60"><defs><style>.cls-1{fill:#8993be;}.cls-2{fill:#232531;fill-rule:evenodd;}</style></defs><title>skill-icons</title><ellipse class="cls-1" cx="30" cy="30" rx="30" ry="15.62"/><path class="cls-2" d="M8.42,39.25,11.71,22.6h7.6c3.29.21,4.94,1.85,4.94,4.73a7.27,7.27,0,0,1-7.4,7.6h-3.7l-.82,4.32ZM14,31.85l1-6.17h2.67c1.44,0,2.47.62,2.47,1.85-.21,3.5-1.85,4.11-3.7,4.32Zm9.51,3.08,3.29-16.64h3.9l-.82,4.31h3.7c3.29.21,4.52,1.85,4.11,3.91l-1.44,8.42H32.11l1.44-7.6c.21-1,.21-1.65-1.23-1.65H29.24l-1.85,9.25ZM36,39.25,39.25,22.6h7.6c3.29.21,4.93,1.85,4.93,4.73a7.27,7.27,0,0,1-7.4,7.6h-3.7l-.82,4.32Zm5.55-7.4,1-6.17h2.68c1.43,0,2.46.62,2.46,1.85-.2,3.5-1.85,4.11-3.7,4.32Z"/></svg>