<svg id="Layer_1" data-name="Layer 1" xmlns="http://www.w3.org/2000/svg" xmlns:xlink="http://www.w3.org/1999/xlink" viewBox="0 0 60 60"><defs><style>.cls-1{fill:#185c37;}.cls-2{fill:#21a366;}.cls-3{fill:#107c41;}.cls-4{opacity:0.1;}.cls-4,.cls-5{isolation:isolate;}.cls-5{opacity:0.2;}.cls-6{fill:url(#linear-gradient);}.cls-7{fill:#fff;}.cls-8{fill:#33c481;}</style><linearGradient id="linear-gradient" x1="5.34" y1="1979.33" x2="25.35" y2="1944.67" gradientTransform="matrix(1, 0, 0, -1, 0, 1992)" gradientUnits="userSpaceOnUse"><stop offset="0" stop-color="#18884f"/><stop offset="0.5" stop-color="#117e43"/><stop offset="1" stop-color="#0b6631"/></linearGradient></defs><title>skill-icons</title><path class="cls-1" d="M37.67,28.61,14,24.43V55.3a2.56,2.56,0,0,0,2.56,2.56H57.44A2.56,2.56,0,0,0,60,55.31h0V43.93Z"/><path class="cls-2" d="M37.67,2.14H16.51A2.56,2.56,0,0,0,14,4.69h0V16.07L37.67,30l12.56,4.18L60,30V16.07Z"/><path class="cls-3" d="M14,16.07H37.67V30H14Z"/><path class="cls-4" d="M30.93,13.29H14V48.11h17a2.58,2.58,0,0,0,2.56-2.56V15.84A2.56,2.56,0,0,0,30.93,13.29Z"/><path class="cls-5" d="M29.53,14.68H14V49.5H29.53A2.57,2.57,0,0,0,32.09,47V17.23A2.57,2.57,0,0,0,29.53,14.68Z"/><path class="cls-5" d="M29.53,14.68H14v32H29.53a2.56,2.56,0,0,0,2.56-2.55V17.23A2.57,2.57,0,0,0,29.53,14.68Z"/><path class="cls-5" d="M28.14,14.68H14v32H28.14a2.56,2.56,0,0,0,2.56-2.55V17.23A2.57,2.57,0,0,0,28.14,14.68Z"/><path class="cls-6" d="M2.56,14.68H28.14a2.56,2.56,0,0,1,2.56,2.55V42.77a2.56,2.56,0,0,1-2.56,2.55H2.56A2.56,2.56,0,0,1,0,42.77H0V17.23a2.56,2.56,0,0,1,2.56-2.55Z"/><path class="cls-7" d="M7.93,38.3,13.31,30,8.38,21.7h4L15,27a9.56,9.56,0,0,1,.51,1.12h0c.18-.4.37-.79.56-1.17L19,21.71h3.64l-5.06,8.23,5.19,8.37H18.9L15.8,32.5a4.73,4.73,0,0,1-.37-.79h0a3.53,3.53,0,0,1-.36.76l-3.2,5.83Z"/><path class="cls-8" d="M57.44,2.14H37.67V16.07H60V4.69a2.56,2.56,0,0,0-2.56-2.55Z"/><path class="cls-3" d="M37.67,30H60V43.93H37.67Z"/></svg>