<svg id="Layer_1" data-name="Layer 1" xmlns="http://www.w3.org/2000/svg" viewBox="0 0 60 60"><defs><style>.cls-1{fill:#2c083d;}.cls-2{fill:#ed9efb;}</style></defs><title>skill-icons</title><rect class="cls-1" x="0.11" y="1" width="59.78" height="58" rx="13.29"/><rect class="cls-1" x="2.88" y="3.77" width="54.24" height="52.47" rx="10.52"/><path class="cls-2" d="M16.15,17.64c0-.21,0-.27.21-.27,1.44,0,4.22-.11,6.89-.11,7.1,0,9.56,3.94,9.56,7.77,0,5.7-4.39,8.12-9.8,8.12H21v6.92a.24.24,0,0,1-.28.28H16.4c-.18,0-.25-.11-.25-.28ZM21,28.82c.59,0,1,0,2,0,2.77,0,5-.85,5-3.73,0-2.21-1.52-3.62-4.57-3.62-1.13,0-2.08,0-2.39.07Z"/><path class="cls-2" d="M39.6,22.88a.39.39,0,0,1,.41.32,6.57,6.57,0,0,1,.39,2A7.31,7.31,0,0,1,46,22.54c.21,0,.27.07.27.27v4.33c0,.17-.07.24-.31.24-2.54-.1-4.57.67-5.31,1.52l0,11.17c0,.21-.07.28-.31.28h-4.2c-.28,0-.35-.11-.35-.32V27.91c0-1.51,0-3.55-.18-4.78,0-.18,0-.25.21-.25Z"/></svg>