<svg id="Layer_1" data-name="Layer 1" xmlns="http://www.w3.org/2000/svg" xmlns:xlink="http://www.w3.org/1999/xlink" viewBox="0 0 60 60"><defs><style>.cls-1{fill:url(#linear-gradient);}</style><linearGradient id="linear-gradient" y1="30" x2="60" y2="30" gradientUnits="userSpaceOnUse"><stop offset="0" stop-color="#72f5c9"/><stop offset="0.18" stop-color="#6ae9bf"/><stop offset="0.52" stop-color="#54caa3"/><stop offset="0.96" stop-color="#329776"/><stop offset="1" stop-color="#2e9271"/></linearGradient></defs><title>skill-icons</title><path class="cls-1" d="M9.05,25.57a1.44,1.44,0,0,0,0,2.88h7.61a1.44,1.44,0,1,0,0-2.88H14.3v-2h8a3.4,3.4,0,0,0,3.4-3.4V6.56a3.4,3.4,0,0,0-3.4-3.4H3.4A3.4,3.4,0,0,0,0,6.56v13.6a3.4,3.4,0,0,0,3.4,3.39h8v2H9.05ZM2.87,20.16V6.56A.52.52,0,0,1,3.4,6H22.31a.52.52,0,0,1,.53.52v13.6a.52.52,0,0,1-.53.52H3.4A.54.54,0,0,1,2.87,20.16ZM56.6,51.93a3.4,3.4,0,0,0,3.4-3.4V35a3.4,3.4,0,0,0-3.4-3.4H37.69a3.4,3.4,0,0,0-3.4,3.4V48.53a3.4,3.4,0,0,0,3.4,3.4h8v2H43.34a1.45,1.45,0,1,0,0,2.89H51A1.45,1.45,0,0,0,51,54H48.59v-2ZM37.16,48.54V35a.52.52,0,0,1,.53-.53H56.6a.53.53,0,0,1,.53.53V48.53a.52.52,0,0,1-.53.52H37.69A.52.52,0,0,1,37.16,48.54ZM47.45,29.39a1.53,1.53,0,0,1-1.53-1.52v-15H30.7a1.53,1.53,0,0,1,0-3.05H47.45A1.53,1.53,0,0,1,49,11.37v16.5A1.52,1.52,0,0,1,47.45,29.39Z"/></svg>