<svg id="Layer_1" data-name="Layer 1" xmlns="http://www.w3.org/2000/svg" viewBox="0 0 60 60"><title>skill-icons</title><path d="M56,15.68A29.94,29.94,0,0,0,45.06,4.76,29.3,29.3,0,0,0,30,.73a29.4,29.4,0,0,0-15.06,4A29.86,29.86,0,0,0,4,15.68,29.33,29.33,0,0,0,0,30.73,29.19,29.19,0,0,0,5.72,48.37,29.46,29.46,0,0,0,20.51,59.21a1.75,1.75,0,0,0,1.56-.27,1.55,1.55,0,0,0,.51-1.18c0-.07,0-.78,0-2.11s0-2.48,0-3.47l-.9.15a11.25,11.25,0,0,1-2.17.14,16.15,16.15,0,0,1-2.71-.27A6.12,6.12,0,0,1,14.14,51a5,5,0,0,1-1.72-2.41L12,47.73a9.77,9.77,0,0,0-1.23-2,4.71,4.71,0,0,0-1.7-1.48l-.27-.2a2.79,2.79,0,0,1-.51-.47A2.06,2.06,0,0,1,8,43c-.08-.18,0-.33.19-.45a2.51,2.51,0,0,1,1.14-.18l.78.12a5.66,5.66,0,0,1,1.93.94,6.38,6.38,0,0,1,1.9,2,6.82,6.82,0,0,0,2.16,2.44,4.61,4.61,0,0,0,2.56.84,11.11,11.11,0,0,0,2.23-.2A7.9,7.9,0,0,0,22.62,48a6.32,6.32,0,0,1,1.91-4,26.23,26.23,0,0,1-4-.7,16.05,16.05,0,0,1-3.68-1.52,10.64,10.64,0,0,1-3.14-2.62A12.57,12.57,0,0,1,11.66,35a19.63,19.63,0,0,1-.8-5.86,11.44,11.44,0,0,1,3.08-8,10.51,10.51,0,0,1,.28-8,5.57,5.57,0,0,1,3.36.53,23.58,23.58,0,0,1,3.26,1.51c.69.41,1.24.76,1.66,1a28.08,28.08,0,0,1,15,0L39,15.3a21.61,21.61,0,0,1,3.6-1.72,5.14,5.14,0,0,1,3.16-.43,10.38,10.38,0,0,1,.31,8,11.41,11.41,0,0,1,3.09,8.05,19.86,19.86,0,0,1-.8,5.88,12,12,0,0,1-2.07,4.1,11.09,11.09,0,0,1-3.16,2.6,16.05,16.05,0,0,1-3.68,1.52,27.46,27.46,0,0,1-4,.71q2,1.76,2,5.54v8.24A1.53,1.53,0,0,0,38,58.93a1.67,1.67,0,0,0,1.54.28A29.46,29.46,0,0,0,54.28,48.37,29.19,29.19,0,0,0,60,30.73,29.33,29.33,0,0,0,56,15.68Z"/></svg>