<svg id="Layer_1" data-name="Layer 1" xmlns="http://www.w3.org/2000/svg" xmlns:xlink="http://www.w3.org/1999/xlink" viewBox="0 0 60 60"><defs><style>.cls-1{fill:url(#linear-gradient);}</style><linearGradient id="linear-gradient" x1="10.54" y1="15.68" x2="58.85" y2="51.23" gradientUnits="userSpaceOnUse"><stop offset="0" stop-color="#72f5c9"/><stop offset="0.18" stop-color="#6ae9bf"/><stop offset="0.52" stop-color="#54caa3"/><stop offset="0.96" stop-color="#329776"/><stop offset="1" stop-color="#2e9271"/></linearGradient></defs><title>skill-icons</title><path class="cls-1" d="M33.91.25A30,30,0,1,0,59.75,26.09,30,30,0,0,0,33.91.25ZM22.39,40.59H37.6a30.2,30.2,0,0,1-7.6,14A30.31,30.31,0,0,1,22.39,40.59ZM21.58,36a47,47,0,0,1,0-12.08H38.42a48.53,48.53,0,0,1,.39,6,48.53,48.53,0,0,1-.39,6Zm-17-6a25.11,25.11,0,0,1,.76-6H17a51.22,51.22,0,0,0-.39,6A51.22,51.22,0,0,0,17,36H5.31A25.11,25.11,0,0,1,4.55,30ZM37.6,19.41H22.39A30.31,30.31,0,0,1,30,5.45,30.2,30.2,0,0,1,37.6,19.41ZM43,24H54.69a24.38,24.38,0,0,1,0,12.08H43a51.22,51.22,0,0,0,.39-6A51.22,51.22,0,0,0,43,24Zm10.13-4.55H42.21A35.85,35.85,0,0,0,35.73,5.23,25.52,25.52,0,0,1,53.11,19.41ZM24.27,5.23a35.71,35.71,0,0,0-6.48,14.18H6.89A25.52,25.52,0,0,1,24.27,5.23ZM6.89,40.59h10.9a35.71,35.71,0,0,0,6.48,14.18A25.52,25.52,0,0,1,6.89,40.59ZM35.73,54.77a35.85,35.85,0,0,0,6.48-14.18h10.9A25.52,25.52,0,0,1,35.73,54.77Z"/></svg>