<svg id="Layer_1" data-name="Layer 1" xmlns="http://www.w3.org/2000/svg" viewBox="0 0 60 60"><defs><style>.cls-1{fill:#53c1de;}</style></defs><title>skill-icons</title><path class="cls-1" d="M49.33,20.61h0c-.64-.22-1.28-.42-1.93-.61q.16-.64.3-1.32c1.46-7.09.51-12.81-2.76-14.69s-8.25.07-13.42,4.57C31,9,30.51,9.47,30,9.93L29,9C23.62,4.21,18.18,2.18,14.92,4.07S10.87,11.25,12.19,18c.13.66.28,1.33.44,2-.77.21-1.51.45-2.22.69C4.06,22.88,0,26.35,0,30s4.35,7.45,11,9.71q.81.27,1.62.51c-.17.71-.33,1.42-.47,2.14C10.87,48.92,11.85,54.17,15,56s8.62-.05,13.89-4.65c.41-.36.83-.75,1.25-1.15.53.51,1.07,1,1.62,1.48C36.83,56,41.87,57.8,45,56s4.27-7.5,2.91-14.36c-.1-.52-.22-1.06-.36-1.6l1.12-.35C55.52,37.4,60,33.72,60,30,60,26.34,55.81,22.84,49.33,20.61ZM33.2,10.5c4.43-3.86,8.57-5.38,10.46-4.29s2.79,5.83,1.53,12c-.08.4-.17.79-.27,1.19a62.91,62.91,0,0,0-8-1.27,60.79,60.79,0,0,0-5.08-6.33Q32.5,11.12,33.2,10.5ZM17.72,33c.54,1,1.11,2.09,1.7,3.11s1.23,2.07,1.88,3.08a55.67,55.67,0,0,1-5.53-.89A55.75,55.75,0,0,1,17.72,33Zm0-6c-.74-1.77-1.38-3.51-1.9-5.2,1.71-.38,3.53-.69,5.44-.93-.64,1-1.25,2-1.84,3S18.25,26,17.71,27Zm1.37,3c.79-1.64,1.64-3.26,2.55-4.84h0Q23,22.8,24.54,20.54c1.78-.13,3.61-.2,5.46-.2s3.69.07,5.47.2c1,1.51,2,3.05,2.89,4.62S40.14,28.34,41,30q-1.2,2.48-2.58,4.86h0Q37,37.2,35.49,39.48c-1.78.12-3.62.19-5.49.19s-3.68-.06-5.43-.17Q23,37.22,21.64,34.85C20.72,33.27,19.87,31.65,19.08,30Zm21.51,6.1q.91-1.56,1.74-3.18a53.63,53.63,0,0,1,2,5.28,51.77,51.77,0,0,1-5.6.95C39.39,38.16,40,37.14,40.59,36.11ZM42.31,27c-.56-1.05-1.13-2.09-1.73-3.12s-1.19-2-1.82-3c1.91.24,3.75.56,5.47.95C43.71,23.49,43.07,25.22,42.31,27ZM30,13.6c1.18,1.28,2.36,2.71,3.53,4.26-2.36-.11-4.73-.11-7.09,0A53.8,53.8,0,0,1,30,13.6ZM16.21,6.28c2-1.16,6.44.5,11.12,4.65l.9.83a63.7,63.7,0,0,0-5.11,6.33,63.14,63.14,0,0,0-8,1.24c-.15-.61-.29-1.23-.41-1.84h0C13.57,11.72,14.32,7.38,16.21,6.28ZM13.28,37.7c-.5-.15-1-.3-1.48-.47a21.87,21.87,0,0,1-7-3.71C3.31,32.24,2.56,31,2.56,30c0-2.19,3.26-5,8.69-6.87.68-.23,1.37-.45,2.07-.65A60.48,60.48,0,0,0,16.24,30,63.46,63.46,0,0,0,13.28,37.7ZM27.17,49.38a21.78,21.78,0,0,1-6.71,4.21h0c-1.85.65-3.32.67-4.21.15-1.9-1.09-2.68-5.3-1.61-11,.13-.67.27-1.34.44-2A58.5,58.5,0,0,0,23.16,42a61,61,0,0,0,5.16,6.37C27.94,48.69,27.56,49,27.17,49.38Zm2.93-2.9a55.32,55.32,0,0,1-3.61-4.32c1.15.05,2.32.07,3.51.07s2.43,0,3.62-.08A54.83,54.83,0,0,1,30.1,46.48Zm15.56,3.57c-.35,1.93-1.07,3.21-2,3.72-1.89,1.1-5.93-.32-10.3-4.08-.5-.43-1-.89-1.5-1.37a59,59,0,0,0,5-6.39,60.67,60.67,0,0,0,8.13-1.25c.12.49.23,1,.33,1.45A21.65,21.65,0,0,1,45.66,50.05Zm2.18-12.8h0l-1,.31a59.53,59.53,0,0,0-3-7.6,58.41,58.41,0,0,0,2.92-7.49c.62.18,1.21.37,1.79.56C54.05,25,57.44,27.77,57.44,30S53.78,35.28,47.84,37.25Z"/><path class="cls-1" d="M30,24.59A5.36,5.36,0,1,1,24.64,30,5.36,5.36,0,0,1,30,24.59"/></svg>