<svg id="Layer_1" data-name="Layer 1" xmlns="http://www.w3.org/2000/svg" viewBox="0 0 60 60"><defs><style>.cls-1{fill:#ee4323;}</style></defs><title>skill-icons</title><path class="cls-1" d="M42.45,22.67l-.37-.2a2.85,2.85,0,0,1,.25,1.22,3.74,3.74,0,0,0,.12-.89,3.81,3.81,0,0,1-.13,1.08v-.19a3.89,3.89,0,0,1-.52,1.24l.12-.12a4.41,4.41,0,0,1-7.08.43c-3-3.87.06-8,.49-12.14C35.88,8,32.66,3,28.67,0c2.2,3.56-.7,8.26-3,10.9s-5,4.68-7.46,7a62,62,0,0,0-7.42,8C6.39,31.77,3.7,39.13,5.68,46.42S14,58.36,21.09,60c-3.6-1.56-7-5.51-7-9.55,0-4.41,2.78-8.16,6.26-10.62-.42,1.58-.65,3,.39,4.44A4.19,4.19,0,0,0,25,45.87c3.72-.81,3.89-4.9,1.68-7.28s-4.29-5-3.46-8.44A8.79,8.79,0,0,1,26,25.68c-1,2.69,1.88,5.35,3.8,6.67,3.33,2.3,7,4,10.05,6.72S45.48,45.72,45,50.16C44.48,55,40.66,58.31,36.38,60c9-2,18.41-9,18.6-19.07C55.14,32.67,49.47,26.31,42.45,22.67Z"/></svg>