<svg id="Layer_1" data-name="Layer 1" xmlns="http://www.w3.org/2000/svg" viewBox="0 0 60 60"><defs><style>.cls-1{fill:#271302;}.cls-2{fill:#ff7c01;}</style></defs><title>skill-icons</title><rect class="cls-1" y="0.89" width="60" height="58.22" rx="13.34"/><rect class="cls-1" x="2.78" y="3.67" width="54.44" height="52.66" rx="10.56"/><path class="cls-2" d="M21,34.89l-1.69,5.22a.4.4,0,0,1-.39.28H14.85c-.25,0-.32-.14-.28-.36l7.05-20.36A6.57,6.57,0,0,0,22,17.52a.22.22,0,0,1,.21-.24h5.64c.18,0,.25,0,.28.21l8,22.58c.07.17,0,.32-.17.32H31.36a.36.36,0,0,1-.39-.25l-1.8-5.26Zm6.85-4.41c-.71-2.33-2.12-6.6-2.79-9.11h0c-.56,2.36-1.83,6.25-2.75,9.11Z"/><path class="cls-2" d="M38.24,18.23A2.64,2.64,0,0,1,41,15.52a2.56,2.56,0,0,1,2.72,2.71A2.59,2.59,0,0,1,41,21,2.56,2.56,0,0,1,38.24,18.23Zm.24,4.91a.24.24,0,0,1,.28-.28H43.1c.21,0,.28.07.28.28V40.07c0,.21,0,.32-.32.32H38.84c-.25,0-.36-.11-.36-.32Z"/></svg>