<svg id="Layer_1" data-name="Layer 1" xmlns="http://www.w3.org/2000/svg" xmlns:xlink="http://www.w3.org/1999/xlink" viewBox="0 0 60 60"><defs><style>.cls-1{fill:none;}.cls-2,.cls-7{fill:#cce6ff;}.cls-2{fill-opacity:0.26;}.cls-10,.cls-2,.cls-3,.cls-4,.cls-5,.cls-6,.cls-7,.cls-8,.cls-9{fill-rule:evenodd;}.cls-3{fill:url(#linear-gradient);}.cls-4{fill:url(#linear-gradient-2);}.cls-5{fill:#e5f1ff;}.cls-6{fill:#0bbc00;}.cls-8{fill:url(#linear-gradient-3);}.cls-9{fill:#ff6c2c;}.cls-10{fill:#fff;}</style><linearGradient id="linear-gradient" x1="5.34" y1="-110.49" x2="6.44" y2="-110.49" gradientTransform="matrix(0, 39.29, 39.29, 0, 4367.87, -184.58)" gradientUnits="userSpaceOnUse"><stop offset="0" stop-color="#cce6ff"/><stop offset="1" stop-color="#1d98ff"/></linearGradient><linearGradient id="linear-gradient-2" x1="7.77" y1="-110.4" x2="8.87" y2="-110.4" gradientTransform="matrix(0, 25.21, 25.21, 0, 2810.37, -168.92)" gradientUnits="userSpaceOnUse"><stop offset="0" stop-color="#fff"/><stop offset="1" stop-color="#a3d3ff"/></linearGradient><linearGradient id="linear-gradient-3" x1="-16.51" y1="-111.05" x2="-15.41" y2="-111.05" gradientTransform="matrix(0, -9.87, -9.87, 0, -1069.58, -112.28)" xlink:href="#linear-gradient"/></defs><title>skill-icons</title><rect id="_8.-CPanel" data-name=" 8.-CPanel" class="cls-1" x="-3.68" y="2.63" width="65.68" height="54.74"/><path id="Rounded-Rectangle-1-copy" class="cls-2" d="M53.78,12.14a2.41,2.41,0,0,0-2.41-2.41H5.1a2.41,2.41,0,0,0-2.4,2.41v29a2.4,2.4,0,0,0,2.4,2.4H51.37a2.4,2.4,0,0,0,2.41-2.4Z"/><path id="Rounded-Rectangle-1" class="cls-3" d="M52.25,10.23a2.41,2.41,0,0,0-2.41-2.4H3.57a2.41,2.41,0,0,0-2.4,2.4v29a2.41,2.41,0,0,0,2.4,2.4H49.84a2.41,2.41,0,0,0,2.41-2.4Z"/><path id="Rounded-Rectangle-2" class="cls-4" d="M49.58,11.88a1.77,1.77,0,0,0-1.77-1.76H5.26A1.28,1.28,0,0,0,4,11.4V35.51H49.58Z"/><path id="Rounded-Rectangle-3" class="cls-5" d="M30.6,38.41a1,1,0,0,0-1-1H24a1,1,0,0,0-1,1v.28a1,1,0,0,0,1,1h5.62a1,1,0,0,0,1-1Z"/><path id="Shape-3" class="cls-6" d="M29.78,21.93v1.26L28,24A7.67,7.67,0,0,1,27.74,25l1.13,1.55-.63,1.09-1.91-.2a9.32,9.32,0,0,1-.77.77l.2,1.91-1.09.63-1.55-1.13a7.92,7.92,0,0,1-1.06.29l-.78,1.75H20l-.78-1.75a7.18,7.18,0,0,1-1.06-.29l-1.55,1.13-1.09-.63.2-1.91a8.11,8.11,0,0,1-.78-.77l-1.91.2-.63-1.09L13.55,25A7.64,7.64,0,0,1,13.27,24l-1.76-.77V21.93l1.76-.78a7.64,7.64,0,0,1,.28-1.07l-1.13-1.55.63-1.09,1.91.2a8.11,8.11,0,0,1,.78-.77L15.54,15l1.09-.63,1.55,1.13a7.18,7.18,0,0,1,1.06-.29L20,13.42h1.26l.78,1.75a7.92,7.92,0,0,1,1.06.29l1.55-1.13,1.09.63-.2,1.91a9.32,9.32,0,0,1,.77.77l1.91-.2.63,1.09-1.13,1.55A7.67,7.67,0,0,1,28,21.15Zm-9.13-2.21a2.84,2.84,0,1,0,2.83,2.84A2.84,2.84,0,0,0,20.65,19.72Z"/><path id="Shape-4" class="cls-7" d="M30.74,31.42l.36-.52a3.52,3.52,0,0,1-.64-1l-.6.11a.23.23,0,0,1-.16,0,.2.2,0,0,1-.09-.13l-.22-1.22a.2.2,0,0,1,.17-.24l.64-.12A3.71,3.71,0,0,1,30.49,27L30,26.67a.19.19,0,0,1-.09-.14.23.23,0,0,1,0-.16l.7-1,0,0a.21.21,0,0,1,.26,0l.54.37a4,4,0,0,1,1-.64l-.11-.61a.23.23,0,0,1,0-.16.22.22,0,0,1,.14-.08L33.76,24a.21.21,0,0,1,.25.17l.12.63a3.56,3.56,0,0,1,1.2.28l.34-.49a.2.2,0,0,1,.13-.09.21.21,0,0,1,.16,0l1,.7a.21.21,0,0,1,.05.3l-.34.5a3.71,3.71,0,0,1,.67,1.07l.56-.1a.23.23,0,0,1,.16,0,.22.22,0,0,1,.08.14l.23,1.21a.22.22,0,0,1-.17.25l-.58.1a3.56,3.56,0,0,1-.29,1.24l.45.31a.22.22,0,0,1,.06.3l-.7,1a.21.21,0,0,1-.29.06l-.48-.33A4.18,4.18,0,0,1,35.3,32l.1.54a.2.2,0,0,1,0,.16.24.24,0,0,1-.13.09L34,33a.22.22,0,0,1-.25-.17l-.11-.59a3.84,3.84,0,0,1-1.23-.31l-.32.48a.23.23,0,0,1-.14.09.24.24,0,0,1-.16,0l-1-.7A.22.22,0,0,1,30.74,31.42Zm2.31-1.68a1.55,1.55,0,0,0,1.87-.08,1.93,1.93,0,0,0,.27-.3,1.54,1.54,0,0,0-2.26-2.05,1.27,1.27,0,0,0-.27.3,1.52,1.52,0,0,0-.25,1.15A1.57,1.57,0,0,0,33.05,29.74Zm1.15-6.37a.23.23,0,0,1,0-.16l.19-.84a4.69,4.69,0,0,1-1.33-1l-.71.45a.22.22,0,0,1-.3-.07l-.85-1.35a.22.22,0,0,1,.06-.29l.76-.48A5,5,0,0,1,31.75,18l-.84-.19a.2.2,0,0,1-.13-.09.23.23,0,0,1,0-.16L31.1,16a.2.2,0,0,1,.25-.16l.88.2a4.69,4.69,0,0,1,1-1.33L32.75,14a.2.2,0,0,1,0-.27s0,0,0,0l1.35-.85a.21.21,0,0,1,.29.07l.47.74a4.83,4.83,0,0,1,1.65-.26l.18-.8a.21.21,0,0,1,.25-.16l1.56.35a.22.22,0,0,1,.16.25l-.18.82a4.88,4.88,0,0,1,1.38,1l.65-.41a.22.22,0,0,1,.3.07l.85,1.34a.22.22,0,0,1,0,.16.2.2,0,0,1-.09.13l-.68.43a4.69,4.69,0,0,1,.26,1.7l.74.17a.24.24,0,0,1,.13.09.23.23,0,0,1,0,.16l-.34,1.55a.21.21,0,0,1-.26.16l-.78-.17a4.62,4.62,0,0,1-1,1.38l.41.64a.23.23,0,0,1,0,.16.18.18,0,0,1-.09.13l-1.34.85a.23.23,0,0,1-.16,0,.19.19,0,0,1-.14-.09l-.44-.7a4.59,4.59,0,0,1-1.68.23l-.18.78a.22.22,0,0,1-.09.14.23.23,0,0,1-.16,0l-1.56-.35A.2.2,0,0,1,34.2,23.37Zm1.85-3.24a2,2,0,0,0,1.77-.43,2.07,2.07,0,0,0,.67-1.11,2,2,0,0,0-1.55-2.44,2,2,0,0,0-1.77.43,2,2,0,0,0,.88,3.55Z"/><path id="Shape-2-copy" class="cls-8" d="M21.22,41.6H32.07v5.91s0,1.81,2.94,3.15c-1.36.3-10.3,0-10.3,0v0a43.4,43.4,0,0,1-6.43,0c3-1.33,2.94-3.13,2.94-3.13Z"/><path id="Rounded-Rectangle-5" class="cls-7" d="M35.2,51.15A1.2,1.2,0,0,0,34,50H19.29a1.2,1.2,0,0,0-1.2,1.2v.36a1.2,1.2,0,0,0,1.2,1.2H34a1.2,1.2,0,0,0,1.2-1.2Z"/><path class="cls-9" d="M47.76,36.17h3.13a9.45,9.45,0,0,1,2,.1A5.36,5.36,0,0,1,56,38.21,5.6,5.6,0,0,1,57,40a8.51,8.51,0,0,1,.21,1,5.19,5.19,0,0,1-.23,2.31A5.37,5.37,0,0,1,53.59,47c-1.29.5-3.45.33-5.22.34h0c.17-.65.35-1.3.52-1.94a4.42,4.42,0,0,1,.29-.91,1.88,1.88,0,0,1,.6-.59,3.59,3.59,0,0,1,1.57-.17h.5a2,2,0,0,0,1.37-.87,2.24,2.24,0,0,0,.27-.67,2,2,0,0,0-.16-1.23c-.59-1.35-1.93-1.12-3.8-1.12l-2.16,8.06c-.31,1-.39,2.34-1.21,2.85a3.51,3.51,0,0,1-1.7.21H42.82l2.85-10.66c.2-.73.39-1.47.59-2.21a3.76,3.76,0,0,1,.49-1.31,1.51,1.51,0,0,1,.73-.49Z"/><path class="cls-9" d="M40.53,39.79h4.36c-.15.59-.31,1.18-.46,1.77-.25.81-.31,1.4-1,1.72a6.7,6.7,0,0,1-2.19.12h-.55a1.93,1.93,0,0,0-1.7,1.49A2.06,2.06,0,0,0,39,46a1.89,1.89,0,0,0,1.65,1.36c.59.09,1.41-.16,1.79.14s.29.64.16,1.07c-.21.8-.43,1.59-.65,2.39a11.34,11.34,0,0,1-2.29-.09,5.33,5.33,0,0,1-4.06-3.45,5.78,5.78,0,0,1-.2-3.14A6.46,6.46,0,0,1,36,42.61a5.64,5.64,0,0,1,3-2.53,6.21,6.21,0,0,1,1-.24Z"/><path class="cls-10" d="M51.67,34.06h2l0,0h.2l0,0h.12l0,0h.08l0,0h0l0,0h.08l0,0h0l0,0h0l0,0,0,0h0l0,0h0l0,0,0,0h0l0,0,0,0h0l0,0,0,0,0,0h0l0,0,0,0,0,0,0,0,0,0,0,0,0,0h0l0,0,0,0,0,0,0,0,0,0,0,0,0,0,0,0,0,0,0,0,0,0,0,0,0,0,0,0,0,0,0,0,0,0,0,0,0,0,0,0,0,0,0,0,0,0,0,0,0,0,0,0,0,0,0,0,0,0,0,0,0,0,0,0,0,0,0,0,0,0,0,0,0,0,0,0,0,0,0,0,0,0,0,0,0,0,0,0,0,0,0,0,0,0,0,0,0,0,0,0,0,0,0,0,0,0,0,0,0,0,0,0,0,0,0,0,0,0,0,0,0,0,0,0,0,0,0,0,0,0,0,0,0,0,0,0,0,0,0,0,0,0,0,0,0,0,0,0,0,0,0,0,0,0,0,0,0,0,0,0,0,0,0,0,0,0,0,0,0,0,0,0,0,0,0,0,0,0,0,0,0,0,0,0,0,0,0,0,0,0,0,0,0,0,0,0,0,0,0,0,0,0,0,0,0,0,0,0,0,0,0,0,0,0,0,0,0,0,0,0,0,0,0,0,0,0,0,0,0,0,0,0,0,0,0,0,0,0v0l0,0,0,0,0,0,0,.05v0l0,0,0,0v0l0,0,0,0v0l0,0v0l0,0v.05l0,0v0l0,0v.09l0,0v.17l0,0V40l0,.07v.15l0,.07v.14l0,.07v3l0,0,0,.08,0,.07,0,.07,0,.07v.06l0,.05,0,.06,0,.05v0l0,.06,0,0,0,.05,0,.06v.05l0,0,0,.06,0,0,0,.05,0,0,0,0,0,.06,0,0,0,.05,0,0,0,.05,0,0,0,0,0,.05,0,0,0,.05,0,0,0,0,0,.05,0,0,0,.05,0,0,0,0,0,.05,0,0,0,.05,0,0,0,0,0,.05,0,0,0,0,0,0L58,46l0,0,0,0,0,0,0,.05,0,0,0,0,0,.05,0,0,0,0,0,0,0,0,0,0,0,0,0,0,0,.05,0,0,0,0,0,0,0,0,0,0,0,0,0,0,0,0,0,0,0,0,0,0,0,0,0,0,0,0,0,0,0,0,0,0,0,0,0,0,0,0,0,0,0,0,0,0,0,0,0,0,0,0,0,0,0,0,0,0-.05,0,0,0,0,0-.05,0,0,0,0,0,0,0-.05,0,0,0,0,0,0,0,0,0,0,0,0,0,0,0,0,0,0,0,0,0-.05,0,0,0-.05,0,0,0,0,0-.05,0,0,0,0,0-.05,0,0,0-.05,0,0,0,0,0-.05,0-.06,0-.05,0,0,0-.05,0,0,0,0,0-.05,0-.06,0,0,0,0,0-.05,0,0,0-.05,0,0,0h0l-.05,0h0l-.05,0h-.06l-.05,0h-.1l-.05,0h-.2l-.05,0H49.15v.1l0,.06v.06l0,.06v.06l0,.07,0,.06L49,50,49,50l0,.07v.17l0,0v.11l0,0v.07l0,0v0l0,0v0l0,0v0l0,0,0,0v0l0,0,0,0,0,0,0,0,0,0,0,0,0,0,0,0,0,0,0,0,0,0,0,0,0,0,0,0,0,0,0,0,0,0,0,0,0,0,0,0,0,0,0,0,0,0,0,0,0,0,0,0,0,0,0,0,0,0,0,0,0,0,0,0,0,0,0,0-.05,0,0,0,0,0,0,0-.05,0,0,0,0,0-.05,0,0,0,0,0,0,0,0,0h0l0,0,0,0,0,0h0l0,0h0l0,0h0l0,0-.06,0-.06,0-.06,0-.06,0-.06,0h-.06l0,0h-.06l0,0H39.25l0,0h-.13l-.06,0H39l-.06,0h-.06l-.06,0-.06,0h-.06l-.06,0-.06,0-.06,0h-.06l-.06,0-.06,0-.06,0-.06,0-.06,0,0,0-.06,0-.06,0-.06,0-.05,0-.06,0-.06,0-.05,0-.06,0-.06,0,0,0-.06,0,0,0-.06,0,0,0-.06,0-.05,0,0,0-.06,0,0,0,0,0-.06,0,0,0-.05,0,0,0-.05,0,0,0-.06,0,0,0-.05,0,0,0,0,0-.05,0,0,0,0,0-.05,0,0,0,0,0-.05,0,0,0,0,0-.05,0,0,0,0,0,0,0-.05,0,0,0,0,0,0,0,0,0,0,0,0,0,0,0-.05-.05,0,0,0,0,0,0,0,0,0-.05,0,0,0,0,0,0,0,0,0-.05,0,0,0,0,0,0,0-.05,0,0,0,0,0-.05,0,0,0,0,0-.05,0,0,0,0,0,0,0-.05,0,0,0-.05,0,0,0,0,0-.05,0,0,0,0,0-.05,0,0,0-.05,0,0,0-.06,0,0,0,0L34,49l0,0,0-.05,0-.06,0-.05,0,0,0-.05,0-.06,0-.05,0,0,0-.06,0,0,0-.05,0-.06,0-.05,0-.06,0-.05,0,0v-.07l0,0v-.16l0-.06,0-.06,0-.07,0-.06,0-.07,0-.06v-.07l0-.06,0-.07v-.06l0-.07V47l0-.06V43.72l0-.07v-.06l0-.06,0-.06v-.06l0-.07,0-.06,0-.07,0-.06v-.07l0-.06,0-.07,0-.07,0-.06,0-.07,0-.07,0-.06v-.08l0,0v-.07l0,0v-.06l0,0v0l0,0v0l0,0v0l0,0v0l0,0,0,0v0l0,0,0,0,0,0,0,0v0l0,0,0,0,0,0,0,0,0,0,0,0,0,0,0,0,0,0,0,0,0,0,0,0,0,0,0,0,0,0,0,0,0,0,0,0,0,0,0,0,0,0,0,0,0,0,0,0,0,0,0,0,0,0,0,0,0,0,0,0,0,0,0,0,0,0,0,0,0,0,0,0,0,0,0,0,0,0,0,0,0,0,0,0,0,0,0,0,0,0,0,0,0,0,0,0,0,0,0,0,0,0,0,0,0,0,0,0,0,0,0,0,0,0,0,0,0,0,0,0,0,0,0,0,0,0,0,0,0,0,0,0,0,0,0,0,0,0,0,0,0,0,0,0,0,0,0,0,0,0,0,0,0,0,0,0,0,0,0,0,0,0,0,0,0,0,0,0,0,0,0,0,0,0,0,0,0,0,0,0,0,0,0,0,0,0,0,0,0,0,0,0,0,0,0,0,0,0,0,0,0,0,0,0,0,0,0,0,0,0,0,0,0,0,0,0,0,0,0,0,0,0,0,0,0,0,0,0,0,0,0,0,0,0h0l0,0,0,0,0,0,0,0h0l0,0,0,0h0l0,0,0,0h0l0,0,0,0h0l0,0,0,0h.05l0,0,.05,0,0,0,.06,0h0l0,0h.05l0,0h.19l0,0h.42l.07,0h.14l.17,0,.73-.07h3.73l.06-.22,0-.06v-.18l0-.09,0-.09,0,0v-.06l0,0v-.06l0-.06,0-.06v-.14l0,0v-.11l0,0v0l0,0v0l0,0,0,0,0,0v0l0,0,0,0,0-.05,0,0,0,0,0,0,0,0,0,0,0-.05,0,0,0,0,0,0,0,0,0,0,0,0,0-.05,0,0,0,0,0,0,0,0,0,0,0,0,0,0,0,0,0,0,0,0,0,0,0,0,0,0,0,0,0,0,0,0,0,0,0,0,0,0,0,0,0,0,0,0,0,0,0,0,0,0,0,0,0,0,0,0,0,0,0,0,0,0,0,0h0l0,0,0,0,0,0,0,0h0l0,0h0l0,0,0,0h0l0,0h0l0,0h0l0,0h0l0,0h.06l0,0h.09l0,0h.19l.13,0,.6-.12h4.12ZM40.53,39.79l-.54.05h-.13l-.07,0H39l0,0h-.09l0,0h-.07l0,0h-.06l0,0h-.06l0,0h0l0,0h-.06l0,0h0l0,0h0l0,0h0l0,0h0l0,0h0l0,0h0l0,0h0l0,0h0l0,0,0,0h0l0,0,0,0h0l0,0,0,0h0l0,0,0,0h0l0,0,0,0,0,0h0l0,0,0,0,0,0,0,0h0l0,0,0,0,0,0,0,0,0,0,0,0,0,0h0l0,0,0,0,0,0,0,0,0,0,0,0,0,0,0,0,0,0,0,0,0,0,0,0,0,0,0,0,0,0,0,0,0,0,0,0,0,0,0,0,0,0,0,0,0,0,0,0,0,0,0,0,0,0,0,0,0,0,0,0,0,0,0,0,0,0,0,0,0,0,0,0,0,0v0l0,0,0,0,0,0,0,0,0,0,0,0v0l0,0,0,0,0,0,0,0v0l0,0,0,0,0,0v0l0,0,0,0,0,0v0l0,0,0,0v0l0,0,0,0v0l0,0v0l0,0v.09l0,0v.14l0,0v.39l0,0,0,.06,0,0v.05l0,0,0,.05v.06l0,.05v0l0,.06v0l0,.06v0l0,.06v0l0,.05v2.55l0,.05V47l0,0v.13l0,0v.2l0,0,0,0v0l0,0,0,0,0,0v0l0,0,0,0,0,0,0,0,0,0,0,0,0,0,0,0,0,0,0,0,0,0,0,0,0,0,0,0,0,0,0,0,0,0,0,0,0,0,0,0,0,0,0,0,0,0,0,0,0,0,0,0,0,0,0,0,0,0,0,0,0,0,0,0,0,0,0,0,0,0,0,0,0,0,0,0,0,0,0,0,0,0,0,0,0,0,0,0,0,0,0,0,0,0,0,0,0,0,0,0,0,0,0,0,0,0,0,0,0,0,0,0,0,0,0,0,0,0,0,0,0,0,0,0,0,0,0,0,0,0,0,0,0,0,0,0,0,0,0,0,0,0,0,0,0,0,0,0,0,0,0,0,0,0,0,0,0,0,0,0,0,0,0,0,0,0,0,0,0,0,0,0,0,0,0,0,0,0,0,0h0l0,0,0,0,0,0,.05,0h0l0,0,0,0h0l.05,0h0l0,0,0,0H39l0,0h0l.05,0h.09l0,0h.14l0,0h2.53l.65-2.39V48.3h0v-.16h0V48h0V48h0v0h0v0h0v0h0v0h0v0h0v0h0v0h0v0h-3v0h-.1v0h0v0h0v0h0v0h0v0h0v0h0v0h0v0h0v0h0v0h0v0h0v0h0v0h0v0h0v0h0v0h0v0h0V46h0V46h0v0h0v0h0v0h0v0h0v0h0v0h0v0h0v0h0v0h0v0h0v-.06h0v0h0v-.06h0V45.3h0v-.06h0v-.06h0v0h0V45h0v0h0v0h0v0h0v-.18h0v-.08h0v-.06h0v0h0v0h0v0h0v0h0v0h0v0h0v0h0v0h0v0h0v0h0v0h0v0h0l0,0h0v0h0v0h0v0h.07v0h4.31v0h0v0h0v0h0v0h0v0h0v0h0v0l0,0v-.49l0-.07,0-.07,0-.07,0-.07,0-.07,0-.08v0l0,0,.46-1.77H40.53Zm11-3.62H47.76l-.28.06h-.74l0,0v0h0v.06h0v.08h0v.38l0,0v.18l0,0,0,.09,0,.09v0l0,.05v.09l0,0V38l-.59,2.21L42.82,50.9H46.2l0,0h0l0,0h0l0,0h0v0h0l0,0v0h0v0h0v0l0,0h0l0,0v0l0,0v0h0l0,0v-.06l0,0v-.08l0,0v-.7l0,0v-.1l0,0v-.1l0,0V48.9l0,0,0-.1,0-.11,0-.1,0-.1v0l0,0v-.16l0,0V48l0-.05v0l0,0,2.16-8.06h2.91l0,0h.1l0,0h0l0,0h0l0,0h.36v0h0v0h0v0h0v0h0v0h0v0h0v0h0v0h0v0h0v0h0v0h0v0l0,0v.1h0v0h0v.06h0v.12h0v1.47h0v0l0,0v0l0,0v0l0,0v0h0l0,0v0l0,0v0l0,0h0l0,0v0l0,0h0l0,0,0,0h0l0,0h0l0,0,0,0h0l0,0h0l0,0h0l0,0h0l0,0h-.09l0,0H49.78l0,0h0l0,0h0l0,0,0,0h0l0,0h0l0,0,0,0h0l0,0,0,0,0,0,0,0,0,0h0l0,0,0,0v0l0,0,0,0v0l0,0v0l0,0v0l0,0v0l0,0h0v0h0v0h0v0h0v0h0V45l0,.11,0,.07v.18l-.52,1.94h5l0,0h.18l0,0h0l0,0,0,0h0l0,0,0,0h0l0,0,0,0,0,0h0l0,0,0,0,0,0,0,0,0,0,0,0h0l0,0,0,0,0,0,0,0,0,0,0,0,0,0,0,0,0,0,0,0,0,0,0,0,0,0,0,0,0,0,0,0,0,0,0,0,0,0,0,0,0,0,0,0,0,0,0,0,0,0,0,0,0,0,0,0,0,0,0,0,0,0,0,0,0,0,0,0,0,0,0,0,0,0,0,0,0,0,0,0,0,0,0,0,0,0,0,0,0,0,0,0,0,0,0,0,0,0,0,0,0,0,0,0,0,0,0,0,0,0,0,0,0,0,0,0,0,0,0,0,0,0,0,0,0,0,0,0,0,0,0,0,0,0,0,0,0,0,0,0,0,0,0,0,0,0,0,0,0,0,0,0,0,0,0,0,0,0v0l0,0,0,0,0,0,0,0v0l0,0,0,0,0,0v0l0,0,0,0v0l0,0,0,0v0l0,0v0l0,0v0l0,0v-.08l0,0v0l0-.05v-.08l0,0v-.1l0-.06,0-.06L57,43V41h0v-.35l0-.06v-.8l0,0V39.6l0,0v-.09l0,0v-.06l0,0v0l0,0v-.06l0,0v0l0,0v-.06l0,0v0l0,0v0l0,0,0,0v0l0,0v0l0,0v0l0,0,0,0v0l0,0,0,0v0l0,0,0,0v0l0,0,0,0v0l0,0,0,0,0,0v0l0,0,0,0,0,0,0,0v0l0,0,0,0,0,0v0l0,0,0,0,0,0,0,0v0l0,0,0,0,0,0,0,0v0l0,0,0,0,0,0,0,0,0,0,0,0,0,0,0,0,0,0,0,0,0,0,0,0,0,0,0,0,0,0,0,0,0,0,0,0,0,0,0,0,0,0,0,0,0,0h0l0,0,0,0,0,0,0,0h0l0,0,0,0,0,0,0,0h0l0,0,0,0h0l0,0,0,0,0,0h0l0,0,0,0h0l0,0h0l0,0,0,0h0l0,0h0l0,0h0l0,0h0l0,0h0l0,0h0l0,0h0l0,0h0l0,0h0l0,0h-.05l0,0h-.05l0,0H54l0,0H53.9l0,0H53.7l0,0H51.53Z"/></svg>