<svg id="Layer_1" data-name="Layer 1" xmlns="http://www.w3.org/2000/svg" viewBox="0 0 60 60"><defs><style>.cls-1{fill:#4353ff;}.cls-2{fill:#fff;}</style></defs><title>skill-icons</title><circle class="cls-1" cx="30" cy="30" r="30"/><path class="cls-2" d="M38.81,26.44,36.09,35c0-.66-1.87-14.87-1.87-14.87-4.31,0-6.6,3.05-7.8,6.3L23.1,35c0-.62-.47-8.52-.47-8.52a7,7,0,0,0-6.81-6.35l3.53,21.52c4.5,0,6.94-3.06,8.19-6.3l2.82-7.31c0,.3,1.87,13.61,1.87,13.61a8.64,8.64,0,0,0,8.25-6l6.38-15.49c-4.5,0-6.87,3.05-8.07,6.3Z"/></svg>