<svg id="Layer_1" data-name="Layer 1" xmlns="http://www.w3.org/2000/svg" viewBox="0 0 60 60"><title>skill-icons</title><path d="M30,60A30.56,30.56,0,0,1,0,30,30.52,30.52,0,0,1,30,0,30.56,30.56,0,0,1,60,30,30.6,30.6,0,0,1,30,60ZM30,2.13A28.39,28.39,0,0,0,2.06,30,28.43,28.43,0,0,0,30,57.87,28.43,28.43,0,0,0,57.87,30,28.38,28.38,0,0,0,30,2.13Zm-7.2,52.38,7.68-22.08,8,21.6A26,26,0,0,1,22.77,54.51Zm-5.9-39a47,47,0,0,1-8.23.41A26.61,26.61,0,0,1,30,4.46a26.5,26.5,0,0,1,17.28,6.72A4.13,4.13,0,0,0,43,13.51c-1.32,4,1.46,7,3,10.08a11.37,11.37,0,0,1,.55,8.64L42.72,45.32,33.46,17.83c1-.09,1.94-.12,2.82-.28s1.26-1.19.54-1.78c-.22-.18-.48,0-.75,0l-5.55.71H26.3c-1.19,0-4.55-1.38-4.84.18-.14.6.31.93.83,1,.91.12,2,.18,2.81.27l4,10.8L23.52,45.35,14.19,17.84c1-.09,2-.12,2.88-.28.74-.09,1.06-.46,1-1.1A1.23,1.23,0,0,0,16.87,15.5ZM6.58,19.75,18.86,52.94A26.15,26.15,0,0,1,8.44,43.71a26.35,26.35,0,0,1-1.86-24Zm48,17A26.28,26.28,0,0,1,42.72,52.11c.28-.72.71-2,1.3-3.7L51.16,27.7A31.72,31.72,0,0,0,52.59,21,11.05,11.05,0,0,0,52.53,18c2.92,6.3,3.75,12.54,2,18.75Z"/></svg>