<?xml version="1.0" encoding="utf-8"?>
<!-- Generator: Adobe Illustrator 23.1.0, SVG Export Plug-In . SVG Version: 6.00 Build 0)  -->
<svg version="1.1" id="Layer_1" xmlns="http://www.w3.org/2000/svg" xmlns:xlink="http://www.w3.org/1999/xlink" x="0px" y="0px"
	 viewBox="0 0 14.5 16" style="enable-background:new 0 0 14.5 16;" xml:space="preserve">
<title>social-onlinejobs</title>
<path d="M11.9,3.3c0,0.1,0,0.1,0,0.2c-0.1,0.4-0.3,0.8-0.6,1c-0.1,0.1-0.1,0.1,0,0.2c0.3,0.3,0.6,0.6,0.9,1c0.1,0.2,0.3,0.4,0.4,0.7
	c0.6,0.9,1.1,1.9,1.3,3c0,0.1,0,0.2,0,0.3c-0.3,0.6-0.7,1.1-1.3,1.5c-0.1,0.1-0.2,0.1-0.2,0.3c-0.4,0.7-0.9,1.3-1.5,1.8
	c-0.1,0.1-0.1,0.1-0.2,0c-0.2-0.4-0.4-0.9-0.6-1.3c-0.1-0.2,0-0.3,0.1-0.4c0,0,0,0,0,0c0.5-0.2,0.9-0.4,1.4-0.6
	c0.5-0.3,0.9-0.6,1.3-1.1c0.2-0.2,0.2-0.4,0.1-0.6C13,9.1,13,9.1,12.9,9c-0.1-0.4-0.3-0.7-0.4-1.1c-0.3-0.7-0.8-1.3-1.3-1.8
	c-0.3-0.4-0.8-0.6-1.3-0.5c-0.1,0-0.1,0-0.1-0.1c0-0.1,0-0.2-0.1-0.2c0,0,0,0-0.1,0c-0.1,0-0.1-0.1-0.1-0.2c0-0.3,0.1-0.5,0.1-0.8
	c0-0.1,0.1-0.2,0.1-0.2c0.4-0.2,0.7-0.6,0.6-1c0-0.1-0.1-0.3-0.3-0.3c0,0-0.1,0-0.1,0C9.8,3,9.7,3.1,9.5,3.3c0-0.2,0.2-0.3,0.3-0.4
	c0.2-0.1,0.4-0.1,0.5,0c0.2,0.1,0.3,0.3,0.2,0.5c0,0.4-0.2,0.7-0.4,1L10,4.4c0.1,0,0.3,0,0.4-0.1c0.2-0.1,0.4-0.3,0.5-0.6
	c0.2-0.5,0.3-1.1,0.2-1.6c0-0.8-0.5-1.6-1.3-1.8C9.3,0.2,8.9,0.1,8.4,0C8.1-0.1,7.8-0.1,7.5,0C7.3,0,7.1,0.3,7.1,0.5
	c0,0.1,0.1,0.2,0.1,0.3c0.1,0.1,0.2,0.3,0.3,0.4C7.2,1.1,7.1,0.9,7,0.5C6.6,0.7,6.5,1,6.9,1.3c0.1,0,0.1,0.1,0,0.2
	C6.3,2.4,6,3.5,6.1,4.6c0,0.1,0.1,0.2,0.1,0.2C6.6,5,7.1,5.1,7.5,5.1c0.3,0,0.3,0,0.3,0.3c0,0.1,0,0.1-0.1,0.1S7.6,5.6,7.6,5.6
	c0,0.1,0,0.2,0,0.3C7.6,6,7.6,6,7.5,6c-0.4,0-0.8,0.1-1.2,0.3C6,6.3,5.8,6.5,5.6,6.8c0,0.1-0.1,0.2-0.2,0.2C4.8,7.4,4.3,8,3.9,8.7
	C3.9,8.8,3.9,8.9,3.9,9l0.2,0.3c0.3,0.5,0.7,0.9,1.2,1.2c0,0,0.2,0,0.1,0.1s-0.1,0.1-0.2,0.1c-0.4-0.1-0.9-0.2-1.4-0.3
	c-0.3-0.1-0.7-0.1-1,0c-0.2,0-0.4,0.2-0.3,0.5c0,0.2,0,0.4,0,0.5c0.1,1,0.3,2,0.5,3c0,0.2,0,0.3-0.2,0.3c-0.5,0.2-0.9,0.4-1.4,0.6
	c-0.1,0.1-0.3,0.1-0.3,0.3s0.2,0.1,0.3,0.1h0.2h2c0.3,0,0.6,0,0.9-0.1c0.3-0.1,0.4-0.3,0.3-0.6c-0.2-0.8-0.4-1.7-0.4-2.6
	c0-0.1,0-0.1,0.1-0.1c0.7-0.1,1.5-0.2,2.2-0.1c0.5,0,0.9,0.2,1.2,0.6c0.3,0.4,0.6,0.8,0.7,1.3c0,0.1-0.1,0.1-0.1,0.1
	c-0.5,0.1-1,0.2-1.5,0.2c-0.6,0-1.2-0.1-1.8-0.3c0.1,0.5,0.1,1,0.2,1.5c0,0.1,0.1,0.1,0.2,0.1l0.6,0.1c2.6,0.4,5.1-0.7,6.6-2.9
	c1.7-2.2,2-5.3,0.6-7.7C13.1,4.5,12.6,3.8,11.9,3.3z M5.9,9.9C5.5,9.6,5.5,9,5.1,8.7c0.4-0.2,0.7-0.5,1-0.8C6.1,8.6,6.1,9.2,5.9,9.9
	L5.9,9.9z M9.9,10.5c0-0.1-0.1-0.1-0.2-0.1c-0.2-0.1-0.2-0.2-0.2-0.4C9.6,9.2,9.9,8.5,10.3,8c0.1-0.2,0.3-0.3,0.4-0.4
	c0.2,0.5,0.5,1,0.9,1.4c0,0.1,0.1,0.1,0,0.1c-0.3,0.2-0.6,0.5-0.8,0.7c-0.2,0.2-0.5,0.4-0.8,0.6C10,10.5,9.9,10.5,9.9,10.5
	C9.9,10.5,9.9,10.5,9.9,10.5L9.9,10.5z"/>
<path d="M2.2,13.9c-0.1-0.4-0.1-0.7-0.2-1.1c-0.2-0.7-0.3-1.5-0.3-2.3c0-0.1,0-0.1,0-0.2c-0.9-2.9,0.7-6,3.5-7.1
	c0.1,0,0.2-0.1,0.2-0.2c0.1-0.5,0.2-1,0.4-1.5C2,2.4-0.6,6.2,0.1,10.1C0.4,11.6,1.1,12.9,2.2,13.9z"/>
</svg>
